<svg width="22" height="20" viewBox="0 0 22 20" fill="none" xmlns="http://www.w3.org/2000/svg">
<rect width="22" height="20" />
<path d="M18.4589 9.53069C18.6192 9.53069 18.7475 9.58218 18.8437 9.68515C18.9479 9.7802 19 9.90693 19 10.0653C19 10.2158 18.9479 10.3386 18.8437 10.4337C18.7475 10.5287 18.6192 10.5762 18.4589 10.5762H16.6072V12.3941C16.6072 12.5683 16.5511 12.7149 16.4389 12.8337C16.3267 12.9446 16.1784 13 15.994 13C15.8176 13 15.6693 12.9446 15.5491 12.8337C15.4369 12.7149 15.3808 12.5683 15.3808 12.3941V10.5762H13.5411C13.3888 10.5762 13.2605 10.5248 13.1563 10.4218C13.0521 10.3188 13 10.1921 13 10.0416C13 9.89109 13.0481 9.76832 13.1443 9.67327C13.2485 9.57822 13.3808 9.53069 13.5411 9.53069H15.3808V7.59406C15.3808 7.4198 15.4369 7.27723 15.5491 7.16634C15.6693 7.05545 15.8176 7 15.994 7C16.1784 7 16.3267 7.05545 16.4389 7.16634C16.5511 7.27723 16.6072 7.4198 16.6072 7.59406V9.53069H18.4589Z" fill="#1A0E6A"/>
<path fill-rule="evenodd" clip-rule="evenodd" d="M6.92729 9.18315H7.90691C9.06602 9.18315 10 8.24916 10 7.09005C10 5.93702 9.06602 5 7.90691 5C6.75084 5 5.81077 5.93702 5.81685 7.09005V8.07575H4.18619V7.09005C4.18619 5.93702 3.24916 5 2.09614 5C0.937025 5 0 5.93702 0 7.09005C0 8.24916 0.943109 9.19227 2.09614 9.18315H3.07575V10.8199H2.09614C0.937025 10.8199 0 11.7539 0 12.9069C0 14.0691 0.937025 15 2.09614 15C3.24916 15 4.18619 14.0691 4.18619 12.9069V11.9303H5.81685V12.9069C5.81685 14.0691 6.75084 15 7.90691 15C9.06602 15 10 14.0691 10 12.9069C10 11.7539 9.06602 10.8199 7.90691 10.8199H6.92729V9.18315ZM4.18619 9.18619H5.8199V10.8199H4.18619V9.18619ZM3.07575 7.08701C3.07575 6.54852 2.63766 6.11043 2.09918 6.11043C1.55157 6.11043 1.11348 6.54852 1.11348 7.08701C1.11348 7.63462 1.55157 8.07271 2.09918 8.07271H3.07575V7.08701ZM3.07575 11.9303V12.9069C3.07575 13.4545 2.63766 13.8926 2.09918 13.8926C1.55157 13.8926 1.11348 13.4545 1.11348 12.9069C1.11348 12.3684 1.55157 11.9303 2.09918 11.9303H3.07575ZM6.92729 12.9069C6.92729 13.4545 7.36538 13.8926 7.90386 13.8926C8.45148 13.8926 8.88957 13.4545 8.88957 12.9069C8.88957 12.3684 8.45148 11.9303 7.90386 11.9303H6.92729V12.9069ZM6.92729 7.08701V8.07271H7.90386C8.45148 8.07271 8.88957 7.63462 8.88957 7.08701C8.88957 6.54852 8.45148 6.11043 7.90386 6.11043C7.36538 6.11043 6.92729 6.54852 6.92729 7.08701Z" fill="#1A0E6A"/>
</svg>
