<svg width="12" height="11" viewBox="0 0 12 11" fill="none" xmlns="http://www.w3.org/2000/svg">
<path d="M8.85005 0.0299152C8.25314 0.0284451 7.66815 0.196936 7.16347 0.515689C6.65878 0.834441 6.25517 1.17465 6 1.71429C5.69904 1.06013 5.18275 0.644731 4.53727 0.325612C3.89178 0.00649339 3.15631 -0.0813783 2.45381 0.0766865C1.75131 0.234751 1.12436 0.629173 0.67776 1.19402C0.23116 1.75886 -0.00801947 2.45989 0.000205251 3.17992C0.000205251 6.47992 6 11 6 11C6 11 12 6.47992 12 3.17992C12 2.34448 11.6681 1.54327 11.0774 0.952529C10.4867 0.361789 9.68547 0.0299152 8.85005 0.0299152Z" fill="#695ACA"/>
</svg>
